<svg xmlns="http://www.w3.org/2000/svg" xmlns:xlink="http://www.w3.org/1999/xlink" viewBox="0 0 1360.16 1845.36"><defs><style>.cls-1{fill:url(#未命名的渐变_9);}.cls-2{fill:#3e3a39;}.cls-3{fill:#e51373;}.cls-4{fill:#9d1c50;}.cls-5{fill:#631433;}</style><linearGradient id="未命名的渐变_9" x1="680.08" x2="680.08" y2="1360.16" gradientUnits="userSpaceOnUse"><stop offset="0" stop-color="#efefef"/><stop offset="1" stop-color="#dcdddd"/></linearGradient></defs><g id="Layer_2" data-name="Layer 2"><g id="图层_1" data-name="图层 1"><rect class="cls-1" width="1360.16" height="1360.16" rx="28.4"/><path class="cls-2" d="M205.87,1480.64l82.86,230.9h34.12v38.17H202.22v-38.17h40l-23.76-69.46H107.38l-23.76,69.46h38.79v38.17H1v-38.17h37l82.45-230.9H83.62v-37h159v37Zm-41.83,0h-1.42l-43.26,125.5h86.92Z"/><path class="cls-2" d="M409.35,1536.28v37.57h-39v111.89q0,17.48,3.76,22.65t12.89,5.18a68.11,68.11,0,0,0,22.34-3.86v38q-19.49,5.68-31.48,5.69-26.4,0-38-13.3t-11.58-45.59V1573.85H300.5v-37.57h27.82V1504l42-38.38v70.67Z"/><path class="cls-2" d="M516.37,1712.35v37.36H404.07v-37.36h37.77V1480.64H404.07v-37h79.81v268.68Z"/><path class="cls-2" d="M701,1611.62v100.73h35.75v37.36H664v-26.19q-30.46,29.85-67.83,29.85a73.38,73.38,0,0,1-62.24-33.61,64.11,64.11,0,0,1,1-69.86,71,71,0,0,1,29.34-24.27,88.07,88.07,0,0,1,37.16-8.53q31.27,0,58.29,18.28v-23q0-25-10.56-35.74t-34.73-10.76q-17.06,0-28.53,6.19t-19,18.79l-40.21-10q13.6-25.39,36.76-37.88t55-12.49q42.86,0,62.65,19.5T701,1611.62Zm-99.1,109.46q30.87,0,57.88-25.79v-25Q632.32,1649,604.91,1649a42.42,42.42,0,0,0-28.74,10.46,33.28,33.28,0,0,0-12.08,26.29q0,15.24,10.56,25.29T601.86,1721.08Z"/><path class="cls-2" d="M863.62,1545.42v-9.14h36.56v70.87H863.62v-13q-18.27-26.21-50-26.2-16.65,0-27.22,7.31t-10.55,18.89q0,10.35,8,16.24t36,10.36l28.23,5.48q63.15,11.58,63.16,61.94,0,29.44-22.85,47.32t-60.62,17.87a102.12,102.12,0,0,1-29.55-4.37q-14.52-4.37-24.26-10.86v11.57H736.7v-73.1h37.37v7.31q3,15.43,17.16,24.77T824,1718q20.52,0,32.29-7.21t11.78-21.42q0-10.35-9.34-15.54t-37.57-10.66l-21.73-4.67q-32.28-6.49-47.32-22.34t-15-40.41q0-19.9,11.06-34a68.39,68.39,0,0,1,28.33-21.23,92.69,92.69,0,0,1,35.54-7.1Q842.7,1533.44,863.62,1545.42Z"/><path class="cls-2" d="M1019.18,1712.35v37.36H911.34v-37.36h33.31v-138.5H911.34v-37.57h75.35v176.07Zm-30.06-248a25.65,25.65,0,0,1-25.38,25.38,23.73,23.73,0,0,1-17.67-7.51,25.5,25.5,0,0,1,0-35.74,23.74,23.74,0,0,1,17.67-7.52,25,25,0,0,1,25.38,25.39Z"/><path class="cls-2" d="M1157.27,1486.52l-37.37,5.69q-1.83-20.71-15.84-20.71-9.94,0-13.3,7.1t-3.35,25.39v32.29H1124v37.57h-36.55v138.5h40.21v37.36H1014.1v-37.36h31.27v-138.5H1014.1v-37.57h31.27v-33.1q0-29.25,14.32-47.52t42.34-18.28q23.15,0,37.26,12.29T1157.27,1486.52Z"/><path class="cls-2" d="M1195.44,1573.85l46.3,120.63,44.88-120.63h-28.43v-37.57h102v37.57h-31.48l-105.4,271.51h-71.07v-36.55h42l25.39-62.75-69.86-172.21H1114v-37.57h106.81v37.57Z"/><path class="cls-3" d="M416.27,465.82,384.45,434,663.39,155.06a22.5,22.5,0,0,1,31.82,0L970.47,430.33l-31.82,31.82L679.3,202.79Z"/><path class="cls-4" d="M881.43,981h-45V653.73H478.74v-45H858.93a22.5,22.5,0,0,1,22.5,22.5Z"/><path class="cls-5" d="M881.43,1187.94H501.24a22.5,22.5,0,0,1-22.5-22.5V803h45v340H881.43Z"/></g></g></svg>