<svg id="Layer_1" data-name="Layer 1" xmlns="http://www.w3.org/2000/svg" xmlns:xlink="http://www.w3.org/1999/xlink" viewBox="0 0 708.05 328.89"><defs><style>.cls-1{fill:#737172;stroke:#888989;}.cls-1,.cls-7{stroke-miterlimit:10;}.cls-2{fill:#3f3b39;}.cls-3{fill:url(#未命名的渐变_9);}.cls-4{fill:#e61674;}.cls-5{fill:#9d1e51;}.cls-6{fill:#631333;}.cls-7{fill:none;stroke:#cacacb;}</style><linearGradient id="未命名的渐变_9" x1="110.74" x2="110.74" y2="221.48" gradientUnits="userSpaceOnUse"><stop offset="0" stop-color="#efefef"/><stop offset="1" stop-color="#dcdedd"/></linearGradient></defs><path class="cls-1" d="M45.21,350.21a14.63,14.63,0,0,1,.7-4.51A11.65,11.65,0,0,1,48,341.93a9.82,9.82,0,0,1,3.3-2.57,10,10,0,0,1,4.48-1,10.77,10.77,0,0,1,3.28.5,9.13,9.13,0,0,1,2.8,1.47,9,9,0,0,1,2.08,2.35A8.48,8.48,0,0,1,65,345.84H63.71a8.55,8.55,0,0,0-2.81-4.59,7.83,7.83,0,0,0-5.13-1.66,8.41,8.41,0,0,0-6.84,3.22,10.49,10.49,0,0,0-1.75,3.39,13.38,13.38,0,0,0-.59,4,13.85,13.85,0,0,0,.57,4,9.78,9.78,0,0,0,1.72,3.3,8.32,8.32,0,0,0,2.86,2.23,9.23,9.23,0,0,0,4,.83,9.35,9.35,0,0,0,3.6-.66,7.47,7.47,0,0,0,4.37-4.7,10.12,10.12,0,0,0,.47-3.73H56v-1.19H65.4v10.93H64.21V356.5h-.06a6.89,6.89,0,0,1-1.22,2.2A7.43,7.43,0,0,1,61,360.35a9.78,9.78,0,0,1-2.47,1,11.18,11.18,0,0,1-7.31-.53,9.58,9.58,0,0,1-3.3-2.47,10.5,10.5,0,0,1-2-3.67A14.46,14.46,0,0,1,45.21,350.21Z" transform="translate(-33.2 -38.98)"/><path class="cls-1" d="M70.21,338.93h9.5a11.7,11.7,0,0,1,2.08.22,5.81,5.81,0,0,1,2.12.89A5.25,5.25,0,0,1,85.55,342a6.84,6.84,0,0,1,.66,3.23,5.73,5.73,0,0,1-1.81,4.53,7.59,7.59,0,0,1-5.19,1.6H71.58v9.93H70.21Zm1.37,11.19h7.85a6.38,6.38,0,0,0,2.54-.45,4.35,4.35,0,0,0,2.58-2.77,5.57,5.57,0,0,0,.28-1.75,6.8,6.8,0,0,0-.19-1.48,4.38,4.38,0,0,0-2.32-3,5.67,5.67,0,0,0-2.71-.55h-8Z" transform="translate(-33.2 -38.98)"/><path class="cls-1" d="M90.76,338.93v13.38q0,.66.06,1.53a10,10,0,0,0,.31,1.8,10.13,10.13,0,0,0,.71,1.81A5.49,5.49,0,0,0,93.07,359,5.84,5.84,0,0,0,95,360.17a8.07,8.07,0,0,0,2.77.42,9,9,0,0,0,3.45-.58,5.44,5.44,0,0,0,2.25-1.66,6.62,6.62,0,0,0,1.24-2.6,14.51,14.51,0,0,0,.37-3.44V338.93h1.38v13.38A15.18,15.18,0,0,1,106,356a7.86,7.86,0,0,1-1.42,3,6.84,6.84,0,0,1-2.67,2,11.92,11.92,0,0,1-7.55.24,7.36,7.36,0,0,1-2.32-1.3,6.08,6.08,0,0,1-1.46-1.83,10.9,10.9,0,0,1-.81-2.08,9.9,9.9,0,0,1-.34-2c0-.65-.06-1.23-.06-1.73V338.93Z" transform="translate(-33.2 -38.98)"/><path class="cls-1" d="M114.84,346.22v-1h2.88v-3.31a3.38,3.38,0,0,1,.28-1.45,2.55,2.55,0,0,1,.77-1,3.37,3.37,0,0,1,1.12-.56,5,5,0,0,1,1.36-.19,9.14,9.14,0,0,1,1.41.16v1a8.91,8.91,0,0,0-1.41-.15,2.93,2.93,0,0,0-1.67.45,2,2,0,0,0-.67,1.8v3.21h3.34v1h-3.34v15h-1.19v-15Z" transform="translate(-33.2 -38.98)"/><path class="cls-1" d="M126.38,348.75h.1a3.91,3.91,0,0,1,.79-1.47,5.64,5.64,0,0,1,1.41-1.19,7.21,7.21,0,0,1,1.84-.77,7.76,7.76,0,0,1,2.11-.23v1.19a5.46,5.46,0,0,0-2.14.19,5.09,5.09,0,0,0-2.29,1.37,8.67,8.67,0,0,0-.77.91,4.52,4.52,0,0,0-.55,1,6.41,6.41,0,0,0-.34,1.19,10.74,10.74,0,0,0-.16,1.56v8.78H125.2V345.18h1.18Z" transform="translate(-33.2 -38.98)"/><path class="cls-1" d="M135.4,342.15v-3.22h1.19v3.22Zm0,19.09V345.18h1.19v16.06Z" transform="translate(-33.2 -38.98)"/><path class="cls-1" d="M141.73,353.37v.19a9.55,9.55,0,0,0,.37,2.69,7,7,0,0,0,1.12,2.24,5.24,5.24,0,0,0,1.85,1.54,5.7,5.7,0,0,0,2.58.56,5.47,5.47,0,0,0,3.82-1.27,6.63,6.63,0,0,0,1.95-3.51h1.18a7.2,7.2,0,0,1-2.29,4.31,8,8,0,0,1-7.78.86,6.29,6.29,0,0,1-2.22-1.75A7.34,7.34,0,0,1,141,356.6a11.73,11.73,0,0,1-.44-3.26,11.23,11.23,0,0,1,.46-3.24,8.11,8.11,0,0,1,1.35-2.71,6.59,6.59,0,0,1,5.47-2.58,6.92,6.92,0,0,1,3,.62,6.39,6.39,0,0,1,2.17,1.71,7.68,7.68,0,0,1,1.33,2.5,10,10,0,0,1,.45,3c0,.11,0,.23,0,.36s0,.25,0,.33Zm11.81-1a9.62,9.62,0,0,0-.44-2.49,6.21,6.21,0,0,0-1.11-2.06,5.66,5.66,0,0,0-1.79-1.42,5.25,5.25,0,0,0-2.39-.53,5.55,5.55,0,0,0-2.54.55,5.71,5.71,0,0,0-1.85,1.43,6.5,6.5,0,0,0-1.16,2.08,9.71,9.71,0,0,0-.5,2.44Z" transform="translate(-33.2 -38.98)"/><path class="cls-1" d="M158.5,345.18h1.19v3.44h.06a5.16,5.16,0,0,1,.89-1.61,5.68,5.68,0,0,1,1.34-1.2,6.07,6.07,0,0,1,1.68-.75,6.7,6.7,0,0,1,1.84-.25,7.28,7.28,0,0,1,2.39.34,4.71,4.71,0,0,1,1.61.91,4.52,4.52,0,0,1,1,1.26,6.17,6.17,0,0,1,.52,1.43,10.06,10.06,0,0,1,.19,1.39c0,.44,0,.84,0,1.17v9.93H170V351.09q0-.6-.09-1.5a4.84,4.84,0,0,0-.55-1.74,4,4,0,0,0-1.38-1.42,4.7,4.7,0,0,0-2.54-.59,5.72,5.72,0,0,0-2.44.5,5.26,5.26,0,0,0-1.81,1.39,6.09,6.09,0,0,0-1.14,2.12,9,9,0,0,0-.39,2.71v8.68H158.5Z" transform="translate(-33.2 -38.98)"/><path class="cls-1" d="M188.11,357.81h-.06a7.36,7.36,0,0,1-2.5,2.86,6.73,6.73,0,0,1-3.66.95,6.59,6.59,0,0,1-3.12-.69,6.13,6.13,0,0,1-2.16-1.84,8,8,0,0,1-1.25-2.67,12.94,12.94,0,0,1,0-6.5,7.78,7.78,0,0,1,1.33-2.67,6.32,6.32,0,0,1,2.24-1.78,7,7,0,0,1,3.15-.66,7.27,7.27,0,0,1,1.91.26,6.92,6.92,0,0,1,1.73.77,5.34,5.34,0,0,1,1.39,1.25,5.41,5.41,0,0,1,.91,1.69h.06v-9.85h1.19v22.31h-1.19Zm-6,2.78a5.26,5.26,0,0,0,2.64-.63,5.64,5.64,0,0,0,1.85-1.65,7.4,7.4,0,0,0,1.09-2.36,10.33,10.33,0,0,0,.36-2.7,10.46,10.46,0,0,0-.36-2.74,7.66,7.66,0,0,0-1.08-2.37,5.25,5.25,0,0,0-1.86-1.67,5.43,5.43,0,0,0-2.67-.63,5.61,5.61,0,0,0-2.72.61,5.44,5.44,0,0,0-1.86,1.64,6.91,6.91,0,0,0-1.06,2.37,11.71,11.71,0,0,0-.33,2.79,10.44,10.44,0,0,0,.36,2.73,7.42,7.42,0,0,0,1.1,2.36,5.44,5.44,0,0,0,1.86,1.64A5.5,5.5,0,0,0,182.14,360.59Z" transform="translate(-33.2 -38.98)"/><path class="cls-1" d="M195.27,338.93v22.31h-1.19V338.93Z" transform="translate(-33.2 -38.98)"/><path class="cls-1" d="M198.2,345.18h1.41l6,14.66,5.49-14.66h1.35L205.54,363c-.33.79-.64,1.48-.92,2.05a3.52,3.52,0,0,1-1,1.26,2.84,2.84,0,0,1-1.49.61,17.2,17.2,0,0,1-2.26.11v-1a8,8,0,0,0,2-.2,3.06,3.06,0,0,0,1.34-.83,4,4,0,0,0,.72-1.26c.25-.62.56-1.46.94-2.52Z" transform="translate(-33.2 -38.98)"/><path class="cls-1" d="M230.68,358.06h-.07a4.9,4.9,0,0,1-.81,1.36,6,6,0,0,1-1.3,1.14,6.66,6.66,0,0,1-1.73.78,7.57,7.57,0,0,1-2.13.28,6.24,6.24,0,0,1-4-1.11,4.08,4.08,0,0,1-1.41-3.42,4,4,0,0,1,2-3.7,6.13,6.13,0,0,1,1.91-.74,19.48,19.48,0,0,1,2-.31l1.84-.16a11.36,11.36,0,0,0,2-.29,2.64,2.64,0,0,0,1.1-.57,1.57,1.57,0,0,0,.47-.92,7.82,7.82,0,0,0,.1-1.4,3.06,3.06,0,0,0-.25-1.22,2.75,2.75,0,0,0-.78-1,4.05,4.05,0,0,0-1.38-.69,7.21,7.21,0,0,0-2.06-.25,5.42,5.42,0,0,0-3.49,1.06,4.21,4.21,0,0,0-1.45,3.22h-1.19a5.24,5.24,0,0,1,1.71-4,6.73,6.73,0,0,1,4.48-1.33,6.41,6.41,0,0,1,4.23,1.14,3.72,3.72,0,0,1,1.33,3v9.35c0,.23,0,.45,0,.68a2.44,2.44,0,0,0,.11.63.85.85,0,0,0,.31.45,1,1,0,0,0,.63.17,5.92,5.92,0,0,0,.87-.09v1a3.91,3.91,0,0,1-1,.12,3,3,0,0,1-1.14-.18,1.56,1.56,0,0,1-.64-.5,2,2,0,0,1-.3-.74,5.29,5.29,0,0,1-.07-.92Zm0-5.94a2.29,2.29,0,0,1-1.33.72,17.34,17.34,0,0,1-2,.28l-2,.19c-.58.06-1.16.15-1.75.26a5.15,5.15,0,0,0-1.57.58,3.3,3.3,0,0,0-1.15,1.11,3.44,3.44,0,0,0-.43,1.83,3.1,3.1,0,0,0,1.12,2.64,5,5,0,0,0,3.1.86,6.05,6.05,0,0,0,3.21-.74,5.72,5.72,0,0,0,1.82-1.68,5.22,5.22,0,0,0,.79-1.85,7.42,7.42,0,0,0,.18-1.2Z" transform="translate(-33.2 -38.98)"/><path class="cls-1" d="M236.93,355.9a5,5,0,0,0,.5,2,4.8,4.8,0,0,0,2.78,2.39,6.59,6.59,0,0,0,2,.31,11.17,11.17,0,0,0,1.67-.14,6,6,0,0,0,1.66-.52,3.46,3.46,0,0,0,1.26-1,2.75,2.75,0,0,0,.5-1.71,2.52,2.52,0,0,0-.81-2,5.6,5.6,0,0,0-2.05-1.06,21.09,21.09,0,0,0-2.65-.61,14.18,14.18,0,0,1-2.66-.7,5.52,5.52,0,0,1-2-1.33,4.14,4.14,0,0,1-.29-4.5,4.13,4.13,0,0,1,1.36-1.27,6.53,6.53,0,0,1,1.86-.67,11.14,11.14,0,0,1,2.06-.2,9.29,9.29,0,0,1,2.35.28,5,5,0,0,1,1.89.91,4.2,4.2,0,0,1,1.25,1.59,5.55,5.55,0,0,1,.45,2.34h-1.19a4.42,4.42,0,0,0-.36-1.87,3.29,3.29,0,0,0-1-1.27,4.55,4.55,0,0,0-1.52-.72,7.51,7.51,0,0,0-1.88-.23,8.43,8.43,0,0,0-1.64.16,4.65,4.65,0,0,0-1.48.53,3.26,3.26,0,0,0-1.08,1,2.39,2.39,0,0,0-.42,1.43,2.49,2.49,0,0,0,.47,1.57,3.38,3.38,0,0,0,1.23.95,8.9,8.9,0,0,0,1.72.58l1.92.43c.79.15,1.54.32,2.24.52a6.41,6.41,0,0,1,1.81.81,3.73,3.73,0,0,1,1.2,1.33,4.34,4.34,0,0,1,.44,2.06,3.7,3.7,0,0,1-.59,2.16,4.77,4.77,0,0,1-1.5,1.36,6.65,6.65,0,0,1-2,.72,12.52,12.52,0,0,1-2.17.2,8.64,8.64,0,0,1-2.55-.36,5.72,5.72,0,0,1-2-1.09,5.1,5.1,0,0,1-1.38-1.8,6.11,6.11,0,0,1-.53-2.47Z" transform="translate(-33.2 -38.98)"/><path class="cls-1" d="M252.82,355.9a5,5,0,0,0,.5,2,4.69,4.69,0,0,0,1.14,1.46,4.82,4.82,0,0,0,1.64.93,6.64,6.64,0,0,0,2,.31,11.17,11.17,0,0,0,1.67-.14,6,6,0,0,0,1.66-.52,3.46,3.46,0,0,0,1.26-1,2.75,2.75,0,0,0,.5-1.71,2.52,2.52,0,0,0-.81-2,5.63,5.63,0,0,0-2-1.06,21.68,21.68,0,0,0-2.66-.61,14.39,14.39,0,0,1-2.66-.7,5.52,5.52,0,0,1-2-1.33,3.54,3.54,0,0,1-.82-2.52,3.44,3.44,0,0,1,.54-2,4,4,0,0,1,1.35-1.27,6.53,6.53,0,0,1,1.86-.67,11.17,11.17,0,0,1,2.07-.2,9.26,9.26,0,0,1,2.34.28,5,5,0,0,1,1.89.91,4.2,4.2,0,0,1,1.25,1.59,5.55,5.55,0,0,1,.45,2.34h-1.18a4.42,4.42,0,0,0-.36-1.87,3.41,3.41,0,0,0-1-1.27,4.55,4.55,0,0,0-1.52-.72,7.48,7.48,0,0,0-1.87-.23,8.29,8.29,0,0,0-1.64.16,4.62,4.62,0,0,0-1.49.53,3.26,3.26,0,0,0-1.08,1,2.39,2.39,0,0,0-.42,1.43,2.49,2.49,0,0,0,.47,1.57,3.38,3.38,0,0,0,1.23.95,9.13,9.13,0,0,0,1.72.58l1.93.43c.79.15,1.53.32,2.23.52a6.41,6.41,0,0,1,1.81.81,3.73,3.73,0,0,1,1.2,1.33,4.22,4.22,0,0,1,.44,2.06,3.7,3.7,0,0,1-.59,2.16,4.77,4.77,0,0,1-1.5,1.36,6.65,6.65,0,0,1-2,.72,12.52,12.52,0,0,1-2.17.2,8.68,8.68,0,0,1-2.55-.36,5.72,5.72,0,0,1-2-1.09,5.22,5.22,0,0,1-1.38-1.8,6.11,6.11,0,0,1-.53-2.47Z" transform="translate(-33.2 -38.98)"/><path class="cls-1" d="M268.52,353.37v.19a9.56,9.56,0,0,0,.38,2.69,6.81,6.81,0,0,0,1.11,2.24,5.32,5.32,0,0,0,1.85,1.54,5.7,5.7,0,0,0,2.58.56,5.5,5.5,0,0,0,3.83-1.27,6.62,6.62,0,0,0,1.94-3.51h1.19a7.21,7.21,0,0,1-2.3,4.31,7,7,0,0,1-4.67,1.5,7.05,7.05,0,0,1-3.11-.64,6.38,6.38,0,0,1-2.22-1.75,7.67,7.67,0,0,1-1.33-2.63,11.73,11.73,0,0,1-.43-3.26,11.58,11.58,0,0,1,.45-3.24,7.94,7.94,0,0,1,1.36-2.71,6.78,6.78,0,0,1,2.26-1.88,7.59,7.59,0,0,1,6.19-.08,6.3,6.3,0,0,1,2.17,1.71,7.32,7.32,0,0,1,1.33,2.5,10,10,0,0,1,.45,3c0,.11,0,.23,0,.36s0,.25,0,.33Zm11.81-1a9.62,9.62,0,0,0-.43-2.49,6.23,6.23,0,0,0-1.12-2.06,5.62,5.62,0,0,0-1.78-1.42,5.3,5.3,0,0,0-2.4-.53,5.55,5.55,0,0,0-2.54.55,5.67,5.67,0,0,0-1.84,1.43,6.31,6.31,0,0,0-1.16,2.08,9.29,9.29,0,0,0-.5,2.44Z" transform="translate(-33.2 -38.98)"/><path class="cls-1" d="M290.54,346.22H287v11.21a4.2,4.2,0,0,0,.22,1.53,1.67,1.67,0,0,0,.67.86,2.35,2.35,0,0,0,1.09.36,11.79,11.79,0,0,0,1.49,0v1a10.44,10.44,0,0,1-1.77,0,3.53,3.53,0,0,1-1.51-.47,2.73,2.73,0,0,1-1.05-1.17,4.46,4.46,0,0,1-.33-2.16V346.22h-3v-1h3v-5H287v5h3.5Z" transform="translate(-33.2 -38.98)"/><path class="cls-1" d="M301.67,348.87h.06a6.68,6.68,0,0,1,.63-1.31,5.52,5.52,0,0,1,1.16-1.33,6.12,6.12,0,0,1,1.74-1,6,6,0,0,1,2.33-.41,7,7,0,0,1,3.21.69,6.34,6.34,0,0,1,2.25,1.84,8,8,0,0,1,1.34,2.69,11.7,11.7,0,0,1,.43,3.22,12.28,12.28,0,0,1-.43,3.37,7.48,7.48,0,0,1-1.34,2.64A6,6,0,0,1,310.8,361a7.6,7.6,0,0,1-3.21.63,7.11,7.11,0,0,1-3.57-.88,5.08,5.08,0,0,1-2.29-2.84h-.06V367h-1.16V345.18h1.16Zm5.92,11.72a5.76,5.76,0,0,0,2.71-.6,5.28,5.28,0,0,0,1.88-1.59,7,7,0,0,0,1.1-2.33,10.94,10.94,0,0,0,0-5.53,7.5,7.5,0,0,0-1.06-2.37,5.44,5.44,0,0,0-1.87-1.69,6.25,6.25,0,0,0-5.49,0,5.14,5.14,0,0,0-1.84,1.65,7.07,7.07,0,0,0-1,2.36,12,12,0,0,0-.31,2.77A13.12,13.12,0,0,0,302,356a6.64,6.64,0,0,0,1,2.34,4.88,4.88,0,0,0,1.82,1.63A5.9,5.9,0,0,0,307.59,360.59Z" transform="translate(-33.2 -38.98)"/><path class="cls-1" d="M329.12,358.06h-.06a5.15,5.15,0,0,1-.81,1.36,6.29,6.29,0,0,1-1.3,1.14,6.66,6.66,0,0,1-1.73.78,7.57,7.57,0,0,1-2.13.28,6.27,6.27,0,0,1-4-1.11,4.11,4.11,0,0,1-1.4-3.42,4,4,0,0,1,2-3.7,6,6,0,0,1,1.91-.74,19.72,19.72,0,0,1,2-.31l1.85-.16a11.23,11.23,0,0,0,2-.29,2.62,2.62,0,0,0,1.11-.57,1.57,1.57,0,0,0,.47-.92,9,9,0,0,0,.09-1.4,2.9,2.9,0,0,0-.25-1.22,2.55,2.55,0,0,0-.78-1,3.91,3.91,0,0,0-1.37-.69,7.21,7.21,0,0,0-2.06-.25,5.42,5.42,0,0,0-3.49,1.06,4.21,4.21,0,0,0-1.45,3.22h-1.19a5.23,5.23,0,0,1,1.7-4,6.78,6.78,0,0,1,4.49-1.33A6.41,6.41,0,0,1,329,346a3.72,3.72,0,0,1,1.33,3v9.35c0,.23,0,.45,0,.68a2.08,2.08,0,0,0,.11.63.85.85,0,0,0,.31.45.94.94,0,0,0,.62.17,6,6,0,0,0,.88-.09v1a3.91,3.91,0,0,1-1,.12,3,3,0,0,1-1.14-.18,1.5,1.5,0,0,1-.64-.5,1.81,1.81,0,0,1-.3-.74,5.25,5.25,0,0,1-.08-.92Zm0-5.94a2.23,2.23,0,0,1-1.32.72,17.34,17.34,0,0,1-2,.28l-2,.19c-.58.06-1.17.15-1.75.26a5.31,5.31,0,0,0-1.58.58,3.19,3.19,0,0,0-1.14,1.11,3.44,3.44,0,0,0-.43,1.83,3.1,3.1,0,0,0,1.12,2.64,5,5,0,0,0,3.09.86,6.07,6.07,0,0,0,3.22-.74,5.68,5.68,0,0,0,1.81-1.68,5.07,5.07,0,0,0,.8-1.85,7,7,0,0,0,.17-1.2Z" transform="translate(-33.2 -38.98)"/><path class="cls-1" d="M347,350.15a4.59,4.59,0,0,0-.54-1.87,4.39,4.39,0,0,0-1.18-1.35,5.41,5.41,0,0,0-1.67-.81,7.08,7.08,0,0,0-2-.28,5.58,5.58,0,0,0-2.66.61,6,6,0,0,0-1.94,1.62,7.39,7.39,0,0,0-1.19,2.32,8.86,8.86,0,0,0-.4,2.67,11.42,11.42,0,0,0,.37,3,6.91,6.91,0,0,0,1.16,2.39A5.42,5.42,0,0,0,338.8,360a6.2,6.2,0,0,0,2.72.56,5.56,5.56,0,0,0,2.07-.38,5.48,5.48,0,0,0,1.69-1,5.25,5.25,0,0,0,1.2-1.58,6.3,6.3,0,0,0,.63-2h1.19a7.53,7.53,0,0,1-.79,2.56A6.09,6.09,0,0,1,346,360a6.45,6.45,0,0,1-2.06,1.17,8,8,0,0,1-5.79-.29,6.52,6.52,0,0,1-2.29-1.89,8.18,8.18,0,0,1-1.31-2.74,12.28,12.28,0,0,1-.42-3.23,10.1,10.1,0,0,1,.49-3.19,7.63,7.63,0,0,1,1.42-2.62,6.57,6.57,0,0,1,2.31-1.78,7.23,7.23,0,0,1,3.16-.66,8.79,8.79,0,0,1,2.45.33,6.28,6.28,0,0,1,2,1,5.2,5.2,0,0,1,1.45,1.67,5.87,5.87,0,0,1,.69,2.36Z" transform="translate(-33.2 -38.98)"/><path class="cls-1" d="M352,338.93h1.18v14.78l9.91-8.53h1.72l-7,6,7.53,10.06h-1.63l-6.84-9.15-3.66,3.09v6.06H352Z" transform="translate(-33.2 -38.98)"/><path class="cls-1" d="M367.28,353.37v.19a9.56,9.56,0,0,0,.38,2.69,6.81,6.81,0,0,0,1.11,2.24,5.32,5.32,0,0,0,1.85,1.54,5.7,5.7,0,0,0,2.58.56,5.46,5.46,0,0,0,3.82-1.27,6.63,6.63,0,0,0,2-3.51h1.19a7.21,7.21,0,0,1-2.3,4.31,8,8,0,0,1-7.78.86,6.29,6.29,0,0,1-2.22-1.75,7.5,7.5,0,0,1-1.33-2.63,11.73,11.73,0,0,1-.44-3.26,11.58,11.58,0,0,1,.46-3.24,7.94,7.94,0,0,1,1.36-2.71,6.78,6.78,0,0,1,2.26-1.88,7.59,7.59,0,0,1,6.19-.08,6.3,6.3,0,0,1,2.17,1.71,7.49,7.49,0,0,1,1.33,2.5,10,10,0,0,1,.45,3c0,.11,0,.23,0,.36s0,.25,0,.33Zm11.81-1a9.62,9.62,0,0,0-.44-2.49,6.21,6.21,0,0,0-1.11-2.06,5.62,5.62,0,0,0-1.78-1.42,5.3,5.3,0,0,0-2.4-.53,5.55,5.55,0,0,0-2.54.55,5.71,5.71,0,0,0-1.85,1.43,6.69,6.69,0,0,0-1.16,2.08,10.18,10.18,0,0,0-.5,2.44Z" transform="translate(-33.2 -38.98)"/><path class="cls-1" d="M385.24,348.75h.09a3.94,3.94,0,0,1,.8-1.47,5.3,5.3,0,0,1,1.41-1.19,7.06,7.06,0,0,1,1.84-.77,7.76,7.76,0,0,1,2.11-.23v1.19a5.45,5.45,0,0,0-2.14.19,5.11,5.11,0,0,0-2.3,1.37,8.52,8.52,0,0,0-.76.91,4.13,4.13,0,0,0-.55,1,6.41,6.41,0,0,0-.35,1.19,10.87,10.87,0,0,0-.15,1.56v8.78h-1.19V345.18h1.19Z" transform="translate(-33.2 -38.98)"/><path class="cls-1" d="M410.55,361.24h-1.19v-3.43h-.06a5.16,5.16,0,0,1-.89,1.61,5.68,5.68,0,0,1-1.34,1.2,6.14,6.14,0,0,1-1.67.75,6.82,6.82,0,0,1-1.85.25,7.6,7.6,0,0,1-2.39-.34,4.88,4.88,0,0,1-1.61-.91,4.56,4.56,0,0,1-1-1.27,5.93,5.93,0,0,1-.52-1.42,8.69,8.69,0,0,1-.18-1.39c0-.45,0-.84,0-1.17v-9.94H399v10.16a12.94,12.94,0,0,0,.1,1.51,4.49,4.49,0,0,0,.54,1.72A3.91,3.91,0,0,0,401,360a4.64,4.64,0,0,0,2.56.6,5.77,5.77,0,0,0,2.43-.5,5.3,5.3,0,0,0,1.82-1.39,6.13,6.13,0,0,0,1.14-2.13,8.9,8.9,0,0,0,.39-2.7v-8.69h1.19Z" transform="translate(-33.2 -38.98)"/><path class="cls-1" d="M415.54,355.9a5,5,0,0,0,.5,2,4.8,4.8,0,0,0,2.78,2.39,6.59,6.59,0,0,0,2,.31,11.17,11.17,0,0,0,1.67-.14,6,6,0,0,0,1.66-.52,3.46,3.46,0,0,0,1.26-1,2.75,2.75,0,0,0,.5-1.71,2.52,2.52,0,0,0-.81-2,5.6,5.6,0,0,0-2.05-1.06,21.09,21.09,0,0,0-2.65-.61,14.39,14.39,0,0,1-2.66-.7,5.52,5.52,0,0,1-2-1.33,4.14,4.14,0,0,1-.29-4.5,4.13,4.13,0,0,1,1.36-1.27,6.53,6.53,0,0,1,1.86-.67,11.17,11.17,0,0,1,2.07-.2,9.26,9.26,0,0,1,2.34.28A5,5,0,0,1,425,346a4.2,4.2,0,0,1,1.25,1.59,5.55,5.55,0,0,1,.45,2.34h-1.18a4.58,4.58,0,0,0-.36-1.87,3.41,3.41,0,0,0-1-1.27,4.55,4.55,0,0,0-1.52-.72,7.48,7.48,0,0,0-1.87-.23,8.29,8.29,0,0,0-1.64.16,4.62,4.62,0,0,0-1.49.53,3.26,3.26,0,0,0-1.08,1,2.39,2.39,0,0,0-.42,1.43,2.49,2.49,0,0,0,.47,1.57,3.38,3.38,0,0,0,1.23.95,8.9,8.9,0,0,0,1.72.58l1.92.43c.8.15,1.54.32,2.24.52a6.41,6.41,0,0,1,1.81.81,3.73,3.73,0,0,1,1.2,1.33,4.34,4.34,0,0,1,.44,2.06,3.7,3.7,0,0,1-.59,2.16,4.77,4.77,0,0,1-1.5,1.36,6.65,6.65,0,0,1-2,.72,12.52,12.52,0,0,1-2.17.2,8.68,8.68,0,0,1-2.55-.36,5.72,5.72,0,0,1-2-1.09,5.22,5.22,0,0,1-1.38-1.8,6.11,6.11,0,0,1-.53-2.47Z" transform="translate(-33.2 -38.98)"/><path class="cls-1" d="M431.1,342.15v-3.22h1.19v3.22Zm0,19.09V345.18h1.19v16.06Z" transform="translate(-33.2 -38.98)"/><path class="cls-1" d="M436.93,345.18h1.19v3.44h.06a5.37,5.37,0,0,1,.89-1.61,5.93,5.93,0,0,1,1.35-1.2,6,6,0,0,1,1.67-.75,6.75,6.75,0,0,1,1.84-.25,7.24,7.24,0,0,1,2.39.34,4.53,4.53,0,0,1,1.61.91,4.38,4.38,0,0,1,1,1.26,5.71,5.71,0,0,1,.51,1.43,7.72,7.72,0,0,1,.19,1.39c0,.44,0,.84,0,1.17v9.93h-1.19V351.09q0-.6-.09-1.5a4.65,4.65,0,0,0-.55-1.74,4,4,0,0,0-1.37-1.42,4.76,4.76,0,0,0-2.55-.59,5.72,5.72,0,0,0-2.44.5,5.35,5.35,0,0,0-1.81,1.39,6.09,6.09,0,0,0-1.14,2.12,9,9,0,0,0-.39,2.71v8.68h-1.19Z" transform="translate(-33.2 -38.98)"/><path class="cls-1" d="M467.32,345.18V360.4A10.72,10.72,0,0,1,467,363a5.8,5.8,0,0,1-1.08,2.23,5.29,5.29,0,0,1-2.1,1.55,8.58,8.58,0,0,1-3.4.58,10.26,10.26,0,0,1-2.4-.27,5.7,5.7,0,0,1-2-.84,4.37,4.37,0,0,1-1.36-1.53,5.61,5.61,0,0,1-.58-2.36h1.19a4.28,4.28,0,0,0,.53,1.81,3.87,3.87,0,0,0,1.14,1.24,5,5,0,0,0,1.58.7,8,8,0,0,0,1.88.22,6.78,6.78,0,0,0,2.76-.5,4.91,4.91,0,0,0,1.77-1.3,4.78,4.78,0,0,0,.92-1.81,8,8,0,0,0,.26-2.05V357h-.06a6,6,0,0,1-5.81,3.66,7.14,7.14,0,0,1-3.08-.61,5.87,5.87,0,0,1-2.15-1.69,7.2,7.2,0,0,1-1.29-2.51,11.12,11.12,0,0,1-.42-3.13,9.8,9.8,0,0,1,.46-3,7.62,7.62,0,0,1,1.32-2.51,6.48,6.48,0,0,1,2.18-1.72,6.6,6.6,0,0,1,3-.64,6.69,6.69,0,0,1,3.52,1,5.36,5.36,0,0,1,2.29,2.75h.06v-3.35Zm-7,.66a5.28,5.28,0,0,0-2.55.59A5.39,5.39,0,0,0,456,348a7,7,0,0,0-1.06,2.2,8.91,8.91,0,0,0-.36,2.51,9.8,9.8,0,0,0,.36,2.68,6.39,6.39,0,0,0,1.09,2.2,5.31,5.31,0,0,0,4.3,2,5.58,5.58,0,0,0,2.56-.56,5.43,5.43,0,0,0,1.83-1.53,6.72,6.72,0,0,0,1.09-2.21,9.57,9.57,0,0,0,0-5.2,6.48,6.48,0,0,0-1.09-2.2,5.4,5.4,0,0,0-1.83-1.52A5.58,5.58,0,0,0,460.29,345.84Z" transform="translate(-33.2 -38.98)"/><path class="cls-1" d="M478.41,345.18h1.19v3.28h.06a4.24,4.24,0,0,1,.65-1.42,5.38,5.38,0,0,1,4.38-2.23,6,6,0,0,1,2,.3,4.52,4.52,0,0,1,1.44.78,3.83,3.83,0,0,1,.93,1.09,4.15,4.15,0,0,1,.47,1.23h.07a5.77,5.77,0,0,1,1.92-2.54,5.36,5.36,0,0,1,3.17-.86,5.89,5.89,0,0,1,2,.33,4.21,4.21,0,0,1,1.6,1,4.52,4.52,0,0,1,1,1.7,7.15,7.15,0,0,1,.38,2.44v11h-1.19v-11a5.06,5.06,0,0,0-.47-2.41,3.72,3.72,0,0,0-1.11-1.33,3.06,3.06,0,0,0-1.28-.56,6.56,6.56,0,0,0-1-.11,5.34,5.34,0,0,0-2,.38,4.31,4.31,0,0,0-1.59,1.12A5.25,5.25,0,0,0,490,349.2a8,8,0,0,0-.37,2.55v9.49h-1.19v-11a5.4,5.4,0,0,0-.45-2.4,3.62,3.62,0,0,0-1.06-1.32,3.23,3.23,0,0,0-1.25-.56,5.21,5.21,0,0,0-1-.13,4.89,4.89,0,0,0-1.75.34,5,5,0,0,0-1.66,1.07,5.48,5.48,0,0,0-1.22,1.84,7,7,0,0,0-.46,2.66v9.49h-1.19Z" transform="translate(-33.2 -38.98)"/><path class="cls-1" d="M514.81,358.06h-.06a4.93,4.93,0,0,1-.82,1.36,6,6,0,0,1-1.29,1.14,6.58,6.58,0,0,1-1.74.78,7.45,7.45,0,0,1-2.12.28,6.27,6.27,0,0,1-4-1.11,4.08,4.08,0,0,1-1.41-3.42,4.22,4.22,0,0,1,.57-2.3,4.13,4.13,0,0,1,1.42-1.4,6.07,6.07,0,0,1,1.9-.74,19.48,19.48,0,0,1,2-.31l1.84-.16a11.22,11.22,0,0,0,2-.29,2.62,2.62,0,0,0,1.11-.57,1.63,1.63,0,0,0,.47-.92,9,9,0,0,0,.09-1.4,2.9,2.9,0,0,0-.25-1.22,2.75,2.75,0,0,0-.78-1,4,4,0,0,0-1.38-.69,7.21,7.21,0,0,0-2.06-.25,5.37,5.37,0,0,0-3.48,1.06,4.22,4.22,0,0,0-1.46,3.22h-1.18a5.23,5.23,0,0,1,1.7-4,6.75,6.75,0,0,1,4.48-1.33,6.46,6.46,0,0,1,4.24,1.14,3.75,3.75,0,0,1,1.33,3v9.35c0,.23,0,.45,0,.68a2.44,2.44,0,0,0,.11.63.91.91,0,0,0,.31.45,1,1,0,0,0,.63.17,5.79,5.79,0,0,0,.87-.09v1a3.85,3.85,0,0,1-1,.12,3,3,0,0,1-1.14-.18,1.56,1.56,0,0,1-.64-.5,1.94,1.94,0,0,1-.29-.74,4.44,4.44,0,0,1-.08-.92Zm0-5.94a2.26,2.26,0,0,1-1.33.72,16.84,16.84,0,0,1-2,.28l-2,.19c-.59.06-1.17.15-1.75.26a5.21,5.21,0,0,0-1.58.58,3.19,3.19,0,0,0-1.14,1.11,3.44,3.44,0,0,0-.44,1.83,3.11,3.11,0,0,0,1.13,2.64,5,5,0,0,0,3.09.86,6.09,6.09,0,0,0,3.22-.74,5.79,5.79,0,0,0,1.81-1.68,5.25,5.25,0,0,0,.8-1.85,8.3,8.3,0,0,0,.17-1.2Z" transform="translate(-33.2 -38.98)"/><path class="cls-1" d="M526.22,352.81l-5.87-7.63H522l5,6.72,5.06-6.72h1.53l-5.81,7.63,6.34,8.43h-1.63L527,353.71l-5.63,7.53h-1.5Z" transform="translate(-33.2 -38.98)"/><path class="cls-1" d="M535.43,352.15h6.69v1.19h-6.69Z" transform="translate(-33.2 -38.98)"/><path class="cls-1" d="M547.74,348.75h.1a3.91,3.91,0,0,1,.79-1.47,5.64,5.64,0,0,1,1.41-1.19,7.06,7.06,0,0,1,1.84-.77,7.76,7.76,0,0,1,2.11-.23v1.19a5.46,5.46,0,0,0-2.14.19,5.11,5.11,0,0,0-2.3,1.37,9.9,9.9,0,0,0-.76.91,4.52,4.52,0,0,0-.55,1,6.41,6.41,0,0,0-.34,1.19,9.5,9.5,0,0,0-.16,1.56v8.78h-1.19V345.18h1.19Z" transform="translate(-33.2 -38.98)"/><path class="cls-1" d="M556.28,353.37v.19a9.56,9.56,0,0,0,.38,2.69,6.81,6.81,0,0,0,1.11,2.24,5.32,5.32,0,0,0,1.85,1.54,5.7,5.7,0,0,0,2.58.56,5.46,5.46,0,0,0,3.82-1.27,6.63,6.63,0,0,0,2-3.51h1.18a7.2,7.2,0,0,1-2.29,4.31,8,8,0,0,1-7.78.86,6.29,6.29,0,0,1-2.22-1.75,7.5,7.5,0,0,1-1.33-2.63,11.73,11.73,0,0,1-.44-3.26,11.23,11.23,0,0,1,.46-3.24,7.94,7.94,0,0,1,1.36-2.71,6.78,6.78,0,0,1,2.26-1.88,7.59,7.59,0,0,1,6.19-.08,6.3,6.3,0,0,1,2.17,1.71,7.49,7.49,0,0,1,1.33,2.5,10,10,0,0,1,.45,3c0,.11,0,.23,0,.36a2.19,2.19,0,0,0,0,.33Zm11.81-1a9.62,9.62,0,0,0-.44-2.49,6.21,6.21,0,0,0-1.11-2.06,5.62,5.62,0,0,0-1.78-1.42,5.3,5.3,0,0,0-2.4-.53,5.55,5.55,0,0,0-2.54.55,5.71,5.71,0,0,0-1.85,1.43,6.69,6.69,0,0,0-1.16,2.08,10.18,10.18,0,0,0-.5,2.44Z" transform="translate(-33.2 -38.98)"/><path class="cls-1" d="M585.14,350.15a4.59,4.59,0,0,0-.54-1.87,4.5,4.5,0,0,0-1.17-1.35,5.46,5.46,0,0,0-1.68-.81,7,7,0,0,0-2-.28,5.58,5.58,0,0,0-2.66.61,6,6,0,0,0-1.94,1.62,7.37,7.37,0,0,0-1.18,2.32,8.56,8.56,0,0,0-.41,2.67,11.42,11.42,0,0,0,.37,3,6.91,6.91,0,0,0,1.16,2.39A5.42,5.42,0,0,0,577,360a6.2,6.2,0,0,0,2.72.56,5.56,5.56,0,0,0,2.07-.38,5.4,5.4,0,0,0,2.9-2.61,6.29,6.29,0,0,0,.62-2h1.19a7.75,7.75,0,0,1-.78,2.56,6.4,6.4,0,0,1-1.5,1.89,6.61,6.61,0,0,1-2.07,1.17,8,8,0,0,1-5.79-.29,6.4,6.4,0,0,1-2.28-1.89,8.2,8.2,0,0,1-1.32-2.74,12.28,12.28,0,0,1-.42-3.23,10.1,10.1,0,0,1,.49-3.19,7.63,7.63,0,0,1,1.42-2.62,6.57,6.57,0,0,1,2.31-1.78,7.23,7.23,0,0,1,3.16-.66,8.79,8.79,0,0,1,2.45.33,6.28,6.28,0,0,1,2,1,5.2,5.2,0,0,1,1.45,1.67,5.87,5.87,0,0,1,.69,2.36Z" transform="translate(-33.2 -38.98)"/><path class="cls-1" d="M595.76,346.22h-3.49v11.21a4.46,4.46,0,0,0,.21,1.53,1.69,1.69,0,0,0,.68.86,2.31,2.31,0,0,0,1.09.36,11.63,11.63,0,0,0,1.48,0v1a10.33,10.33,0,0,1-1.76,0,3.53,3.53,0,0,1-1.52-.47,2.78,2.78,0,0,1-1-1.17,4.35,4.35,0,0,1-.33-2.16V346.22h-3v-1h3v-5h1.19v5h3.49Z" transform="translate(-33.2 -38.98)"/><path class="cls-1" d="M616.37,358.06h-.06a5.15,5.15,0,0,1-.81,1.36,6.29,6.29,0,0,1-1.3,1.14,6.66,6.66,0,0,1-1.73.78,7.57,7.57,0,0,1-2.13.28,6.24,6.24,0,0,1-4-1.11,4.08,4.08,0,0,1-1.41-3.42,4,4,0,0,1,2-3.7,6.13,6.13,0,0,1,1.91-.74,19.48,19.48,0,0,1,2-.31l1.84-.16a11.23,11.23,0,0,0,2-.29,2.62,2.62,0,0,0,1.11-.57,1.57,1.57,0,0,0,.47-.92,8.87,8.87,0,0,0,.1-1.4,3.06,3.06,0,0,0-.25-1.22,2.68,2.68,0,0,0-.79-1,3.91,3.91,0,0,0-1.37-.69,7.21,7.21,0,0,0-2.06-.25,5.42,5.42,0,0,0-3.49,1.06,4.21,4.21,0,0,0-1.45,3.22h-1.19a5.24,5.24,0,0,1,1.71-4,6.73,6.73,0,0,1,4.48-1.33,6.41,6.41,0,0,1,4.23,1.14,3.72,3.72,0,0,1,1.33,3v9.35c0,.23,0,.45,0,.68a2.08,2.08,0,0,0,.11.63.85.85,0,0,0,.31.45.94.94,0,0,0,.62.17,6,6,0,0,0,.88-.09v1a3.91,3.91,0,0,1-1,.12,3,3,0,0,1-1.14-.18,1.5,1.5,0,0,1-.64-.5,1.81,1.81,0,0,1-.3-.74,5.25,5.25,0,0,1-.08-.92Zm0-5.94a2.23,2.23,0,0,1-1.32.72,17.34,17.34,0,0,1-2,.28l-2,.19c-.58.06-1.16.15-1.75.26a5.31,5.31,0,0,0-1.58.58,3.36,3.36,0,0,0-1.14,1.11,3.44,3.44,0,0,0-.43,1.83,3.1,3.1,0,0,0,1.12,2.64,5,5,0,0,0,3.1.86,6.05,6.05,0,0,0,3.21-.74,5.72,5.72,0,0,0,1.82-1.68,5.22,5.22,0,0,0,.79-1.85,7,7,0,0,0,.17-1.2Z" transform="translate(-33.2 -38.98)"/><path class="cls-1" d="M623.74,338.93v22.31h-1.19V338.93Z" transform="translate(-33.2 -38.98)"/><path class="cls-1" d="M641.63,345.18V360.4a11.23,11.23,0,0,1-.31,2.61,5.8,5.8,0,0,1-1.08,2.23,5.29,5.29,0,0,1-2.1,1.55,8.58,8.58,0,0,1-3.4.58,10.26,10.26,0,0,1-2.4-.27,5.84,5.84,0,0,1-2-.84,4.35,4.35,0,0,1-1.35-1.53,5.47,5.47,0,0,1-.58-2.36h1.19a4.28,4.28,0,0,0,.53,1.81,3.87,3.87,0,0,0,1.14,1.24,5,5,0,0,0,1.58.7,8,8,0,0,0,1.87.22,6.79,6.79,0,0,0,2.77-.5,4.79,4.79,0,0,0,1.76-1.3,4.66,4.66,0,0,0,.93-1.81,8.41,8.41,0,0,0,.26-2.05V357h-.06a6,6,0,0,1-5.81,3.66,7.11,7.11,0,0,1-3.08-.61,5.9,5.9,0,0,1-2.16-1.69,7.18,7.18,0,0,1-1.28-2.51,11.12,11.12,0,0,1-.42-3.13,10.1,10.1,0,0,1,.45-3,7.83,7.83,0,0,1,1.33-2.51,6.44,6.44,0,0,1,2.17-1.72,7,7,0,0,1,6.5.33,5.37,5.37,0,0,1,2.3,2.75h.06v-3.35Zm-7,.66a5.28,5.28,0,0,0-2.55.59,5.39,5.39,0,0,0-1.78,1.57,7,7,0,0,0-1.06,2.2,8.91,8.91,0,0,0-.36,2.51,9.8,9.8,0,0,0,.36,2.68,6.39,6.39,0,0,0,1.09,2.2,5.27,5.27,0,0,0,4.3,2,5.58,5.58,0,0,0,2.56-.56,5.43,5.43,0,0,0,1.83-1.53,6.72,6.72,0,0,0,1.09-2.21,9.57,9.57,0,0,0,0-5.2,6.48,6.48,0,0,0-1.09-2.2,5.4,5.4,0,0,0-1.83-1.52A5.58,5.58,0,0,0,634.6,345.84Z" transform="translate(-33.2 -38.98)"/><path class="cls-1" d="M645.43,353.21a10.35,10.35,0,0,1,.49-3.23,8,8,0,0,1,1.42-2.67,6.7,6.7,0,0,1,2.31-1.83,7.76,7.76,0,0,1,6.31,0,6.84,6.84,0,0,1,2.32,1.83A8.33,8.33,0,0,1,659.7,350a10.65,10.65,0,0,1,.48,3.23,10.78,10.78,0,0,1-.48,3.25,8.18,8.18,0,0,1-1.42,2.68A6.9,6.9,0,0,1,656,361a7.76,7.76,0,0,1-6.31,0,6.77,6.77,0,0,1-2.31-1.81,7.82,7.82,0,0,1-1.42-2.68A10.48,10.48,0,0,1,645.43,353.21Zm1.19,0A9.48,9.48,0,0,0,647,356a7.58,7.58,0,0,0,1.18,2.36,5.8,5.8,0,0,0,1.94,1.64,6.08,6.08,0,0,0,5.31,0,5.8,5.8,0,0,0,1.94-1.64,7.6,7.6,0,0,0,1.19-2.36,9.76,9.76,0,0,0,0-5.53,7.49,7.49,0,0,0-1.19-2.36,5.8,5.8,0,0,0-1.94-1.64,6.08,6.08,0,0,0-5.31,0,5.8,5.8,0,0,0-1.94,1.64,7.47,7.47,0,0,0-1.18,2.36A9.41,9.41,0,0,0,646.62,353.21Z" transform="translate(-33.2 -38.98)"/><path class="cls-1" d="M665.16,348.75h.09a3.8,3.8,0,0,1,.8-1.47,5.42,5.42,0,0,1,1.4-1.19,7.13,7.13,0,0,1,1.85-.77,7.69,7.69,0,0,1,2.1-.23v1.19a5.48,5.48,0,0,0-2.14.19,5.09,5.09,0,0,0-2.29,1.37,10.08,10.08,0,0,0-.77.91,4.1,4.1,0,0,0-.54,1,5.73,5.73,0,0,0-.35,1.19,10.87,10.87,0,0,0-.15,1.56v8.78H664V345.18h1.19Z" transform="translate(-33.2 -38.98)"/><path class="cls-1" d="M674.17,342.15v-3.22h1.19v3.22Zm0,19.09V345.18h1.19v16.06Z" transform="translate(-33.2 -38.98)"/><path class="cls-1" d="M686,346.22h-3.49v11.21a4.46,4.46,0,0,0,.21,1.53,1.69,1.69,0,0,0,.68.86,2.31,2.31,0,0,0,1.09.36,11.63,11.63,0,0,0,1.48,0v1a10.33,10.33,0,0,1-1.76,0,3.57,3.57,0,0,1-1.52-.47,2.78,2.78,0,0,1-1-1.17,4.46,4.46,0,0,1-.33-2.16V346.22h-3v-1h3v-5h1.19v5H686Z" transform="translate(-33.2 -38.98)"/><path class="cls-1" d="M690.3,338.93v9.69h.06a5.18,5.18,0,0,1,.9-1.61,5.68,5.68,0,0,1,1.34-1.2,6.14,6.14,0,0,1,1.67-.75,6.75,6.75,0,0,1,1.84-.25,7.34,7.34,0,0,1,2.4.34,4.57,4.57,0,0,1,1.6.91,4.38,4.38,0,0,1,1,1.26,5.71,5.71,0,0,1,.51,1.43,7.72,7.72,0,0,1,.19,1.39c0,.44,0,.84,0,1.17v9.93h-1.19V351.09q0-.6-.09-1.5a4.48,4.48,0,0,0-.55-1.74,4,4,0,0,0-1.37-1.42,4.72,4.72,0,0,0-2.55-.59,5.67,5.67,0,0,0-2.43.5,5.3,5.3,0,0,0-1.82,1.39,6.09,6.09,0,0,0-1.14,2.12,9,9,0,0,0-.39,2.71v8.68h-1.18V338.93Z" transform="translate(-33.2 -38.98)"/><path class="cls-1" d="M706.34,345.18h1.19v3.28h.06a4.24,4.24,0,0,1,.65-1.42,5.32,5.32,0,0,1,2.65-2,5.23,5.23,0,0,1,1.73-.28,6,6,0,0,1,2,.3,4.52,4.52,0,0,1,1.44.78A3.83,3.83,0,0,1,717,347a4.15,4.15,0,0,1,.47,1.23h.06a5.79,5.79,0,0,1,1.93-2.54,5.36,5.36,0,0,1,3.17-.86,5.89,5.89,0,0,1,2,.33,4.21,4.21,0,0,1,1.6,1,4.65,4.65,0,0,1,1,1.7,7.15,7.15,0,0,1,.38,2.44v11h-1.19v-11a5.06,5.06,0,0,0-.47-2.41,3.72,3.72,0,0,0-1.11-1.33,3.06,3.06,0,0,0-1.28-.56,6.56,6.56,0,0,0-1-.11,5.34,5.34,0,0,0-2,.38,4.31,4.31,0,0,0-1.59,1.12,5.25,5.25,0,0,0-1,1.86,8,8,0,0,0-.37,2.55v9.49H716.4v-11a5.4,5.4,0,0,0-.45-2.4,3.64,3.64,0,0,0-1.07-1.32,3.1,3.1,0,0,0-1.25-.56,5,5,0,0,0-1-.13,4.89,4.89,0,0,0-1.75.34,5,5,0,0,0-1.66,1.07,5.48,5.48,0,0,0-1.22,1.84,7,7,0,0,0-.46,2.66v9.49h-1.19Z" transform="translate(-33.2 -38.98)"/><path class="cls-2" d="M354.39,112.09,382,188.93h11.36v12.71H353.17V188.93h13.32l-7.91-23.11h-37l-7.9,23.11h12.9v12.71H286.2V188.93h12.3l27.44-76.84H313.71V99.79h52.91v12.3Zm-13.92,0H340l-14.4,41.77h28.93Z" transform="translate(-33.2 -38.98)"/><path class="cls-2" d="M422.11,130.61v12.5h-13v37.24q0,5.81,1.25,7.53t4.29,1.73a22.58,22.58,0,0,0,7.44-1.29V201a39.55,39.55,0,0,1-10.48,1.89q-8.79,0-12.64-4.42t-3.85-15.18V143.11h-9.26v-12.5h9.26V119.86l14-12.77v23.52Z" transform="translate(-33.2 -38.98)"/><path class="cls-2" d="M457.72,189.2v12.44H420.35V189.2h12.57V112.09H420.35V99.79h26.56V189.2Z" transform="translate(-33.2 -38.98)"/><path class="cls-2" d="M519.15,155.68V189.2H531v12.44H506.85v-8.72q-10.14,9.93-22.57,9.93a24.42,24.42,0,0,1-20.72-11.18,21.38,21.38,0,0,1,.34-23.25,23.7,23.7,0,0,1,9.77-8.08A29.28,29.28,0,0,1,486,157.51a33.91,33.91,0,0,1,19.4,6.08V156q0-8.31-3.51-11.89t-11.56-3.58a19.78,19.78,0,0,0-9.5,2.06,16.37,16.37,0,0,0-6.31,6.25l-13.39-3.31a29.89,29.89,0,0,1,12.24-12.61q7.69-4.16,18.31-4.15,14.27,0,20.85,6.48T519.15,155.68Zm-33,36.43q10.27,0,19.26-8.59v-8.31q-9.12-7.1-18.25-7.09a14.13,14.13,0,0,0-9.56,3.48,11.67,11.67,0,0,0-.51,17.16A12.63,12.63,0,0,0,486.17,192.11Z" transform="translate(-33.2 -38.98)"/><path class="cls-2" d="M573.28,133.65v-3h12.17v23.58H573.28v-4.32a19.22,19.22,0,0,0-16.62-8.72,15.58,15.58,0,0,0-9.06,2.43,7.38,7.38,0,0,0-3.51,6.29,6.32,6.32,0,0,0,2.67,5.41q2.65,2,12,3.44l9.4,1.83q21,3.85,21,20.61a19,19,0,0,1-7.6,15.75q-7.6,5.94-20.17,5.94a33.93,33.93,0,0,1-9.84-1.45,30,30,0,0,1-8.07-3.62v3.86H531V177.31h12.44v2.43a12.56,12.56,0,0,0,5.71,8.25,19.32,19.32,0,0,0,10.91,3.1q6.82,0,10.75-2.4a7.82,7.82,0,0,0,3.92-7.13,5.56,5.56,0,0,0-3.11-5.16q-3.1-1.72-12.5-3.55l-7.23-1.56q-10.75-2.16-15.75-7.43a18.74,18.74,0,0,1-5-13.45,17.75,17.75,0,0,1,3.68-11.32,22.82,22.82,0,0,1,9.43-7.06,30.73,30.73,0,0,1,11.83-2.37Q566.32,129.66,573.28,133.65Z" transform="translate(-33.2 -38.98)"/><path class="cls-2" d="M625.05,189.2v12.44H589.16V189.2h11.08V143.11H589.16v-12.5h25.07V189.2Zm-10-82.52a8.54,8.54,0,0,1-8.44,8.45,7.89,7.89,0,0,1-5.88-2.5,8.46,8.46,0,0,1,0-11.89,7.89,7.89,0,0,1,5.88-2.5,8.3,8.3,0,0,1,8.44,8.44Z" transform="translate(-33.2 -38.98)"/><path class="cls-2" d="M671,114.05l-12.43,1.89q-.62-6.89-5.28-6.89c-2.2,0-3.68.79-4.42,2.37s-1.12,4.39-1.12,8.44v10.75h12.17v12.5H647.75V189.2h13.38v12.44H623.36V189.2h10.4V143.11h-10.4v-12.5h10.4v-11q0-9.74,4.77-15.81t14.09-6.08q7.71,0,12.4,4.08T671,114.05Z" transform="translate(-33.2 -38.98)"/><path class="cls-2" d="M683.7,143.11l15.41,40.14,14.94-40.14h-9.46v-12.5h33.92v12.5H728L693,233.47H669.31V221.3h14l8.45-20.88L668.5,143.11H656.6v-12.5h35.55v12.5Z" transform="translate(-33.2 -38.98)"/><rect class="cls-3" width="221.48" height="221.48" rx="28.4"/><path class="cls-4" d="M101,114.83l-5.18-5.19,45.42-45.41a3.65,3.65,0,0,1,5.18,0l44.82,44.82L186,114.23,143.81,72Z" transform="translate(-33.2 -38.98)"/><path class="cls-5" d="M176.72,198.71h-7.33V145.42H111.15V138.1h61.91a3.66,3.66,0,0,1,3.66,3.66Z" transform="translate(-33.2 -38.98)"/><path class="cls-6" d="M176.72,232.41H114.81a3.66,3.66,0,0,1-3.66-3.67v-59h7.33v55.36h58.24Z" transform="translate(-33.2 -38.98)"/><line class="cls-7" x1="0.38" y1="273.63" x2="708.05" y2="273.63"/></svg>